<svg width="412" height="180" viewBox="0 0 412 180" fill="none" xmlns="http://www.w3.org/2000/svg">
<g filter="url(#filter0_d_17_151)">
<mask id="path-1-inside-1_17_151" fill="white">
<path d="M0 68C0 54.7452 10.7452 44 24 44H388C401.255 44 412 54.7452 412 68V180H0V68Z"/>
</mask>
<path d="M0 68C0 54.7452 10.7452 44 24 44H388C401.255 44 412 54.7452 412 68V180H0V68Z" fill="#000029"/>
<path d="M0 68C0 53.6406 11.6406 42 26 42H386C400.359 42 412 53.6406 412 68C412 55.8497 401.255 46 388 46H24C10.7452 46 0 55.8497 0 68ZM412 180H0H412ZM0 180V44V180ZM412 44V180V44Z" fill="#7070FF" mask="url(#path-1-inside-1_17_151)"/>
</g>
<defs>
<filter id="filter0_d_17_151" x="-40" y="0" width="492" height="216" filterUnits="userSpaceOnUse" color-interpolation-filters="sRGB">
<feFlood flood-opacity="0" result="BackgroundImageFix"/>
<feColorMatrix in="SourceAlpha" type="matrix" values="0 0 0 0 0 0 0 0 0 0 0 0 0 0 0 0 0 0 127 0" result="hardAlpha"/>
<feMorphology radius="8" operator="dilate" in="SourceAlpha" result="effect1_dropShadow_17_151"/>
<feOffset dy="-4"/>
<feGaussianBlur stdDeviation="16"/>
<feComposite in2="hardAlpha" operator="out"/>
<feColorMatrix type="matrix" values="0 0 0 0 0.439216 0 0 0 0 0.439216 0 0 0 0 1 0 0 0 0.72 0"/>
<feBlend mode="normal" in2="BackgroundImageFix" result="effect1_dropShadow_17_151"/>
<feBlend mode="normal" in="SourceGraphic" in2="effect1_dropShadow_17_151" result="shape"/>
</filter>
</defs>
</svg>
